<mxfile host="app.diagrams.net" agent="Mozilla/5.0 (Windows NT 10.0; Win64; x64) AppleWebKit/537.36 (KHTML, like Gecko) Chrome/130.0.0.0 Safari/537.36" version="24.8.6">
  <diagram id="hMvVtiX32T1u-24VstQx" name="Page-3">
    <mxGraphModel dx="1366" dy="735" grid="1" gridSize="10" guides="1" tooltips="1" connect="1" arrows="1" fold="1" page="1" pageScale="1" pageWidth="850" pageHeight="1100" math="0" shadow="0">
      <root>
        <mxCell id="0" />
        <mxCell id="1" parent="0" />
        <mxCell id="mF6jT3bMtm6UFvDJ5FtP-44" value="AWS Cloud" style="points=[[0,0],[0.25,0],[0.5,0],[0.75,0],[1,0],[1,0.25],[1,0.5],[1,0.75],[1,1],[0.75,1],[0.5,1],[0.25,1],[0,1],[0,0.75],[0,0.5],[0,0.25]];outlineConnect=0;gradientColor=none;html=1;whiteSpace=wrap;fontSize=12;fontStyle=1;container=1;pointerEvents=0;collapsible=0;recursiveResize=0;shape=mxgraph.aws4.group;grIcon=mxgraph.aws4.group_aws_cloud_alt;strokeColor=#232F3E;fillColor=none;verticalAlign=top;align=left;spacingLeft=30;fontColor=#232F3E;dashed=0;strokeWidth=2;fontFamily=Verdana;" vertex="1" parent="1">
          <mxGeometry x="240" y="8" width="1200" height="1080" as="geometry" />
        </mxCell>
        <mxCell id="mF6jT3bMtm6UFvDJ5FtP-45" value="us-east-1 (&lt;span style=&quot;box-sizing: border-box; min-width: 0px; min-height: 0px; color: rgb(31, 31, 31); unicode-bidi: -webkit-isolate; word-break: break-all; white-space-collapse: preserve;&quot; class=&quot;webkit-html-attribute-value&quot;&gt;N.Virginia&lt;/span&gt;)" style="points=[[0,0],[0.25,0],[0.5,0],[0.75,0],[1,0],[1,0.25],[1,0.5],[1,0.75],[1,1],[0.75,1],[0.5,1],[0.25,1],[0,1],[0,0.75],[0,0.5],[0,0.25]];outlineConnect=0;gradientColor=none;html=1;whiteSpace=wrap;fontSize=12;fontStyle=1;container=1;pointerEvents=0;collapsible=0;recursiveResize=0;shape=mxgraph.aws4.group;grIcon=mxgraph.aws4.group_region;strokeColor=#00A4A6;fillColor=none;verticalAlign=top;align=left;spacingLeft=30;fontColor=#147EBA;dashed=1;strokeWidth=2;fontFamily=Verdana;" vertex="1" parent="mF6jT3bMtm6UFvDJ5FtP-44">
          <mxGeometry x="40" y="40" width="1120" height="1000" as="geometry" />
        </mxCell>
        <mxCell id="mF6jT3bMtm6UFvDJ5FtP-46" value="VPC&amp;nbsp;&lt;span style=&quot;color: rgb(20, 126, 186);&quot;&gt;(192.168.0.0/16&lt;/span&gt;&lt;span style=&quot;color: rgb(20, 126, 186);&quot;&gt;)&lt;/span&gt;" style="points=[[0,0],[0.25,0],[0.5,0],[0.75,0],[1,0],[1,0.25],[1,0.5],[1,0.75],[1,1],[0.75,1],[0.5,1],[0.25,1],[0,1],[0,0.75],[0,0.5],[0,0.25]];outlineConnect=0;gradientColor=none;html=1;whiteSpace=wrap;fontSize=12;fontStyle=1;container=1;pointerEvents=0;collapsible=0;recursiveResize=0;shape=mxgraph.aws4.group;grIcon=mxgraph.aws4.group_vpc2;strokeColor=#FF8000;fillColor=none;verticalAlign=top;align=left;spacingLeft=30;fontColor=#AAB7B8;dashed=0;strokeWidth=3;fontFamily=Verdana;" vertex="1" parent="mF6jT3bMtm6UFvDJ5FtP-45">
          <mxGeometry x="40" y="32" width="1040" height="918" as="geometry" />
        </mxCell>
        <mxCell id="XAxsYa6l5oEgf_KA3OdA-44" value="Availability Zone (us-east-1a)" style="fillColor=none;strokeColor=#147EBA;dashed=1;verticalAlign=top;fontStyle=1;fontColor=#147EBA;whiteSpace=wrap;html=1;pointerEvents=0;strokeWidth=4;align=left;spacingLeft=30;fontFamily=Verdana;fontSize=8;" vertex="1" parent="mF6jT3bMtm6UFvDJ5FtP-46">
          <mxGeometry x="40" y="159" width="360" height="680" as="geometry" />
        </mxCell>
        <mxCell id="XAxsYa6l5oEgf_KA3OdA-45" value="Availability Zone (us-east-1b)" style="fillColor=none;strokeColor=#147EBA;dashed=1;verticalAlign=top;fontStyle=1;fontColor=#147EBA;whiteSpace=wrap;html=1;pointerEvents=0;strokeWidth=4;align=left;spacingLeft=30;fontFamily=Verdana;fontSize=8;" vertex="1" parent="mF6jT3bMtm6UFvDJ5FtP-46">
          <mxGeometry x="640" y="159" width="360" height="680" as="geometry" />
        </mxCell>
        <mxCell id="XAxsYa6l5oEgf_KA3OdA-46" value="Public subnet (192.168.0.0/26)" style="points=[[0,0],[0.25,0],[0.5,0],[0.75,0],[1,0],[1,0.25],[1,0.5],[1,0.75],[1,1],[0.75,1],[0.5,1],[0.25,1],[0,1],[0,0.75],[0,0.5],[0,0.25]];outlineConnect=0;gradientColor=none;html=1;whiteSpace=wrap;fontSize=8;fontStyle=1;container=1;pointerEvents=0;collapsible=0;recursiveResize=0;shape=mxgraph.aws4.group;grIcon=mxgraph.aws4.group_security_group;grStroke=0;strokeColor=#7AA116;fillColor=#F2F6E8;verticalAlign=top;align=left;spacingLeft=30;fontColor=#248814;dashed=0;strokeWidth=4;fontFamily=Verdana;" vertex="1" parent="mF6jT3bMtm6UFvDJ5FtP-46">
          <mxGeometry x="80" y="199" width="280" height="200" as="geometry" />
        </mxCell>
        <mxCell id="XAxsYa6l5oEgf_KA3OdA-47" value="Public subnet (&lt;span style=&quot;background-color: initial;&quot;&gt;192.168.0.64/26)&lt;/span&gt;" style="points=[[0,0],[0.25,0],[0.5,0],[0.75,0],[1,0],[1,0.25],[1,0.5],[1,0.75],[1,1],[0.75,1],[0.5,1],[0.25,1],[0,1],[0,0.75],[0,0.5],[0,0.25]];outlineConnect=0;gradientColor=none;html=1;whiteSpace=wrap;fontSize=8;fontStyle=1;container=1;pointerEvents=0;collapsible=0;recursiveResize=0;shape=mxgraph.aws4.group;grIcon=mxgraph.aws4.group_security_group;grStroke=0;strokeColor=#7AA116;fillColor=#F2F6E8;verticalAlign=top;align=left;spacingLeft=30;fontColor=#248814;dashed=0;strokeWidth=4;fontFamily=Verdana;" vertex="1" parent="mF6jT3bMtm6UFvDJ5FtP-46">
          <mxGeometry x="680" y="200" width="280" height="199" as="geometry" />
        </mxCell>
        <mxCell id="XAxsYa6l5oEgf_KA3OdA-49" value="Private subnet (192.168.0.128/27)" style="points=[[0,0],[0.25,0],[0.5,0],[0.75,0],[1,0],[1,0.25],[1,0.5],[1,0.75],[1,1],[0.75,1],[0.5,1],[0.25,1],[0,1],[0,0.75],[0,0.5],[0,0.25]];outlineConnect=0;gradientColor=none;html=1;whiteSpace=wrap;fontSize=8;fontStyle=1;container=1;pointerEvents=0;collapsible=0;recursiveResize=0;shape=mxgraph.aws4.group;grIcon=mxgraph.aws4.group_security_group;grStroke=0;strokeColor=#00A4A6;fillColor=#E6F6F7;verticalAlign=top;align=left;spacingLeft=30;fontColor=#147EBA;dashed=0;strokeWidth=4;fontFamily=Verdana;" vertex="1" parent="mF6jT3bMtm6UFvDJ5FtP-46">
          <mxGeometry x="80" y="439" width="280" height="160" as="geometry" />
        </mxCell>
        <mxCell id="XAxsYa6l5oEgf_KA3OdA-50" value="Private subnet (192.168.0.192/27)" style="points=[[0,0],[0.25,0],[0.5,0],[0.75,0],[1,0],[1,0.25],[1,0.5],[1,0.75],[1,1],[0.75,1],[0.5,1],[0.25,1],[0,1],[0,0.75],[0,0.5],[0,0.25]];outlineConnect=0;gradientColor=none;html=1;whiteSpace=wrap;fontSize=8;fontStyle=1;container=1;pointerEvents=0;collapsible=0;recursiveResize=0;shape=mxgraph.aws4.group;grIcon=mxgraph.aws4.group_security_group;grStroke=0;strokeColor=#00A4A6;fillColor=#E6F6F7;verticalAlign=top;align=left;spacingLeft=30;fontColor=#147EBA;dashed=0;strokeWidth=4;fontFamily=Verdana;" vertex="1" parent="mF6jT3bMtm6UFvDJ5FtP-46">
          <mxGeometry x="80" y="639" width="280" height="160" as="geometry" />
        </mxCell>
        <mxCell id="XAxsYa6l5oEgf_KA3OdA-51" value="Private subnet (192.168.0.160/27)" style="points=[[0,0],[0.25,0],[0.5,0],[0.75,0],[1,0],[1,0.25],[1,0.5],[1,0.75],[1,1],[0.75,1],[0.5,1],[0.25,1],[0,1],[0,0.75],[0,0.5],[0,0.25]];outlineConnect=0;gradientColor=none;html=1;whiteSpace=wrap;fontSize=8;fontStyle=1;container=1;pointerEvents=0;collapsible=0;recursiveResize=0;shape=mxgraph.aws4.group;grIcon=mxgraph.aws4.group_security_group;grStroke=0;strokeColor=#00A4A6;fillColor=#E6F6F7;verticalAlign=top;align=left;spacingLeft=30;fontColor=#147EBA;dashed=0;strokeWidth=4;fontFamily=Verdana;" vertex="1" parent="mF6jT3bMtm6UFvDJ5FtP-46">
          <mxGeometry x="680" y="439" width="280" height="160" as="geometry" />
        </mxCell>
        <mxCell id="XAxsYa6l5oEgf_KA3OdA-52" value="Private subnet (192.168.0.224/27)" style="points=[[0,0],[0.25,0],[0.5,0],[0.75,0],[1,0],[1,0.25],[1,0.5],[1,0.75],[1,1],[0.75,1],[0.5,1],[0.25,1],[0,1],[0,0.75],[0,0.5],[0,0.25]];outlineConnect=0;gradientColor=none;html=1;whiteSpace=wrap;fontSize=8;fontStyle=1;container=1;pointerEvents=0;collapsible=0;recursiveResize=0;shape=mxgraph.aws4.group;grIcon=mxgraph.aws4.group_security_group;grStroke=0;strokeColor=#00A4A6;fillColor=#E6F6F7;verticalAlign=top;align=left;spacingLeft=30;fontColor=#147EBA;dashed=0;strokeWidth=4;fontFamily=Verdana;" vertex="1" parent="mF6jT3bMtm6UFvDJ5FtP-46">
          <mxGeometry x="680" y="639" width="280" height="160" as="geometry" />
        </mxCell>
        <mxCell id="XAxsYa6l5oEgf_KA3OdA-53" value="Auto Scaling group" style="points=[[0,0],[0.25,0],[0.5,0],[0.75,0],[1,0],[1,0.25],[1,0.5],[1,0.75],[1,1],[0.75,1],[0.5,1],[0.25,1],[0,1],[0,0.75],[0,0.5],[0,0.25]];outlineConnect=0;gradientColor=none;html=1;whiteSpace=wrap;fontSize=8;fontStyle=1;container=1;pointerEvents=0;collapsible=0;recursiveResize=0;shape=mxgraph.aws4.groupCenter;grIcon=mxgraph.aws4.group_auto_scaling_group;grStroke=1;strokeColor=#D86613;fillColor=none;verticalAlign=top;align=center;fontColor=#D86613;dashed=1;spacingTop=25;strokeWidth=2;spacingLeft=30;fontFamily=Verdana;" vertex="1" parent="mF6jT3bMtm6UFvDJ5FtP-46">
          <mxGeometry x="200" y="279" width="639.5" height="80" as="geometry" />
        </mxCell>
        <mxCell id="XAxsYa6l5oEgf_KA3OdA-54" value="" style="sketch=0;outlineConnect=0;fontColor=#232F3E;gradientColor=none;fillColor=#8C4FFF;strokeColor=none;dashed=0;verticalLabelPosition=bottom;verticalAlign=top;align=center;html=1;fontSize=8;fontStyle=1;aspect=fixed;pointerEvents=1;shape=mxgraph.aws4.route_table;strokeWidth=4;spacingLeft=30;fontFamily=Verdana;" vertex="1" parent="XAxsYa6l5oEgf_KA3OdA-53">
          <mxGeometry x="307.37307692307695" y="48.06" width="22.152307692307694" height="21.576923076923077" as="geometry" />
        </mxCell>
        <mxCell id="XAxsYa6l5oEgf_KA3OdA-55" value="Auto Scaling group" style="points=[[0,0],[0.25,0],[0.5,0],[0.75,0],[1,0],[1,0.25],[1,0.5],[1,0.75],[1,1],[0.75,1],[0.5,1],[0.25,1],[0,1],[0,0.75],[0,0.5],[0,0.25]];outlineConnect=0;gradientColor=none;html=1;whiteSpace=wrap;fontSize=8;fontStyle=1;container=1;pointerEvents=0;collapsible=0;recursiveResize=0;shape=mxgraph.aws4.groupCenter;grIcon=mxgraph.aws4.group_auto_scaling_group;grStroke=1;strokeColor=#D86613;fillColor=none;verticalAlign=top;align=center;fontColor=#D86613;dashed=1;spacingTop=25;strokeWidth=2;spacingLeft=30;fontFamily=Verdana;" vertex="1" parent="mF6jT3bMtm6UFvDJ5FtP-46">
          <mxGeometry x="200" y="489" width="639.5" height="80" as="geometry" />
        </mxCell>
        <mxCell id="XAxsYa6l5oEgf_KA3OdA-56" value="" style="endArrow=classic;startArrow=classic;html=1;rounded=0;fontFamily=Verdana;fontSize=12;fontColor=#248814;fontStyle=0;strokeColor=#0000FF;" edge="1" parent="XAxsYa6l5oEgf_KA3OdA-55">
          <mxGeometry width="50" height="50" relative="1" as="geometry">
            <mxPoint x="150.5" y="30" as="sourcePoint" />
            <mxPoint x="294.5" y="-74.5" as="targetPoint" />
            <Array as="points">
              <mxPoint x="242" y="30" />
              <mxPoint x="241.5" y="-34.5" />
              <mxPoint x="241.5" y="-74.5" />
            </Array>
          </mxGeometry>
        </mxCell>
        <mxCell id="XAxsYa6l5oEgf_KA3OdA-57" value="" style="endArrow=classic;startArrow=classic;html=1;rounded=0;fontFamily=Verdana;fontSize=12;fontColor=#248814;fontStyle=0;strokeColor=#0000FF;" edge="1" parent="XAxsYa6l5oEgf_KA3OdA-55">
          <mxGeometry width="50" height="50" relative="1" as="geometry">
            <mxPoint x="507" y="30" as="sourcePoint" />
            <mxPoint x="363" y="-76" as="targetPoint" />
            <Array as="points">
              <mxPoint x="417" y="30" />
              <mxPoint x="416.5" y="-36.5" />
              <mxPoint x="416.5" y="-76.5" />
            </Array>
          </mxGeometry>
        </mxCell>
        <mxCell id="XAxsYa6l5oEgf_KA3OdA-58" value="" style="outlineConnect=0;dashed=0;verticalLabelPosition=bottom;verticalAlign=top;align=center;html=1;shape=mxgraph.aws3.application_load_balancer;fillColor=#F58534;gradientColor=none;pointerEvents=0;strokeColor=#7AA116;strokeWidth=4;spacingLeft=30;fontFamily=Verdana;fontSize=8;fontColor=#248814;fontStyle=1;" vertex="1" parent="mF6jT3bMtm6UFvDJ5FtP-46">
          <mxGeometry x="494.5" y="159" width="69" height="72" as="geometry" />
        </mxCell>
        <mxCell id="XAxsYa6l5oEgf_KA3OdA-59" value="" style="outlineConnect=0;dashed=0;verticalLabelPosition=bottom;verticalAlign=top;align=center;html=1;shape=mxgraph.aws3.application_load_balancer;fillColor=#F58534;gradientColor=none;pointerEvents=0;strokeColor=#7AA116;strokeWidth=4;spacingLeft=30;fontFamily=Verdana;fontSize=8;fontColor=#248814;fontStyle=1;" vertex="1" parent="mF6jT3bMtm6UFvDJ5FtP-46">
          <mxGeometry x="494.5" y="379" width="69" height="72" as="geometry" />
        </mxCell>
        <mxCell id="XAxsYa6l5oEgf_KA3OdA-60" value="" style="group;fontStyle=1;fontSize=8;align=right;fontFamily=Verdana;" vertex="1" connectable="0" parent="mF6jT3bMtm6UFvDJ5FtP-46">
          <mxGeometry x="249.99769230769232" y="299" width="46.39038461538461" height="53" as="geometry" />
        </mxCell>
        <mxCell id="XAxsYa6l5oEgf_KA3OdA-61" value="" style="sketch=0;points=[[0,0,0],[0.25,0,0],[0.5,0,0],[0.75,0,0],[1,0,0],[0,1,0],[0.25,1,0],[0.5,1,0],[0.75,1,0],[1,1,0],[0,0.25,0],[0,0.5,0],[0,0.75,0],[1,0.25,0],[1,0.5,0],[1,0.75,0]];outlineConnect=0;fontColor=#232F3E;fillColor=#ED7100;strokeColor=#ffffff;dashed=0;verticalLabelPosition=bottom;verticalAlign=top;align=center;html=1;fontSize=8;fontStyle=1;aspect=fixed;shape=mxgraph.aws4.resourceIcon;resIcon=mxgraph.aws4.ec2;pointerEvents=0;strokeWidth=4;spacingLeft=30;fontFamily=Verdana;" vertex="1" parent="XAxsYa6l5oEgf_KA3OdA-60">
          <mxGeometry x="27.33076923076923" width="19.059615384615384" height="19.059615384615384" as="geometry" />
        </mxCell>
        <mxCell id="XAxsYa6l5oEgf_KA3OdA-62" value="&lt;span style=&quot;font-size: 8px;&quot;&gt;EC2 Instances&lt;/span&gt;" style="sketch=0;points=[[0,0,0],[0.25,0,0],[0.5,0,0],[0.75,0,0],[1,0,0],[0,1,0],[0.25,1,0],[0.5,1,0],[0.75,1,0],[1,1,0],[0,0.25,0],[0,0.5,0],[0,0.75,0],[1,0.25,0],[1,0.5,0],[1,0.75,0]];outlineConnect=0;fontColor=#232F3E;fillColor=#ED7100;strokeColor=#ffffff;dashed=0;verticalLabelPosition=bottom;verticalAlign=top;align=center;html=1;fontSize=8;fontStyle=1;aspect=fixed;shape=mxgraph.aws4.resourceIcon;resIcon=mxgraph.aws4.ec2;pointerEvents=0;strokeWidth=4;spacingLeft=30;fontFamily=Verdana;" vertex="1" parent="XAxsYa6l5oEgf_KA3OdA-60">
          <mxGeometry width="19.059615384615384" height="19.059615384615384" as="geometry" />
        </mxCell>
        <mxCell id="XAxsYa6l5oEgf_KA3OdA-63" value="" style="group;fontStyle=1;fontSize=8;align=right;fontFamily=Verdana;" vertex="1" connectable="0" parent="mF6jT3bMtm6UFvDJ5FtP-46">
          <mxGeometry x="249.99769230769232" y="509" width="46.39038461538461" height="26.5" as="geometry" />
        </mxCell>
        <mxCell id="XAxsYa6l5oEgf_KA3OdA-64" value="" style="sketch=0;points=[[0,0,0],[0.25,0,0],[0.5,0,0],[0.75,0,0],[1,0,0],[0,1,0],[0.25,1,0],[0.5,1,0],[0.75,1,0],[1,1,0],[0,0.25,0],[0,0.5,0],[0,0.75,0],[1,0.25,0],[1,0.5,0],[1,0.75,0]];outlineConnect=0;fontColor=#232F3E;fillColor=#ED7100;strokeColor=#ffffff;dashed=0;verticalLabelPosition=bottom;verticalAlign=top;align=center;html=1;fontSize=8;fontStyle=1;aspect=fixed;shape=mxgraph.aws4.resourceIcon;resIcon=mxgraph.aws4.ec2;pointerEvents=0;strokeWidth=4;spacingLeft=30;fontFamily=Verdana;" vertex="1" parent="XAxsYa6l5oEgf_KA3OdA-63">
          <mxGeometry x="27.33076923076923" width="19.059615384615384" height="19.059615384615384" as="geometry" />
        </mxCell>
        <mxCell id="XAxsYa6l5oEgf_KA3OdA-65" value="&lt;span style=&quot;font-size: 8px;&quot;&gt;EC2 Instances&lt;/span&gt;" style="sketch=0;points=[[0,0,0],[0.25,0,0],[0.5,0,0],[0.75,0,0],[1,0,0],[0,1,0],[0.25,1,0],[0.5,1,0],[0.75,1,0],[1,1,0],[0,0.25,0],[0,0.5,0],[0,0.75,0],[1,0.25,0],[1,0.5,0],[1,0.75,0]];outlineConnect=0;fontColor=#232F3E;fillColor=#ED7100;strokeColor=#ffffff;dashed=0;verticalLabelPosition=bottom;verticalAlign=top;align=center;html=1;fontSize=8;fontStyle=1;aspect=fixed;shape=mxgraph.aws4.resourceIcon;resIcon=mxgraph.aws4.ec2;pointerEvents=0;strokeWidth=4;spacingLeft=30;fontFamily=Verdana;" vertex="1" parent="XAxsYa6l5oEgf_KA3OdA-63">
          <mxGeometry width="19.059615384615384" height="19.059615384615384" as="geometry" />
        </mxCell>
        <mxCell id="XAxsYa6l5oEgf_KA3OdA-66" value="" style="group;fontStyle=1;fontSize=8;align=right;fontFamily=Verdana;" vertex="1" connectable="0" parent="mF6jT3bMtm6UFvDJ5FtP-46">
          <mxGeometry x="729.9976923076923" y="299" width="46.39038461538461" height="53" as="geometry" />
        </mxCell>
        <mxCell id="XAxsYa6l5oEgf_KA3OdA-67" value="" style="sketch=0;points=[[0,0,0],[0.25,0,0],[0.5,0,0],[0.75,0,0],[1,0,0],[0,1,0],[0.25,1,0],[0.5,1,0],[0.75,1,0],[1,1,0],[0,0.25,0],[0,0.5,0],[0,0.75,0],[1,0.25,0],[1,0.5,0],[1,0.75,0]];outlineConnect=0;fontColor=#232F3E;fillColor=#ED7100;strokeColor=#ffffff;dashed=0;verticalLabelPosition=bottom;verticalAlign=top;align=center;html=1;fontSize=8;fontStyle=1;aspect=fixed;shape=mxgraph.aws4.resourceIcon;resIcon=mxgraph.aws4.ec2;pointerEvents=0;strokeWidth=4;spacingLeft=30;fontFamily=Verdana;" vertex="1" parent="XAxsYa6l5oEgf_KA3OdA-66">
          <mxGeometry x="27.33076923076923" width="19.059615384615384" height="19.059615384615384" as="geometry" />
        </mxCell>
        <mxCell id="XAxsYa6l5oEgf_KA3OdA-68" value="&lt;span style=&quot;font-size: 8px;&quot;&gt;EC2 Instances&lt;/span&gt;" style="sketch=0;points=[[0,0,0],[0.25,0,0],[0.5,0,0],[0.75,0,0],[1,0,0],[0,1,0],[0.25,1,0],[0.5,1,0],[0.75,1,0],[1,1,0],[0,0.25,0],[0,0.5,0],[0,0.75,0],[1,0.25,0],[1,0.5,0],[1,0.75,0]];outlineConnect=0;fontColor=#232F3E;fillColor=#ED7100;strokeColor=#ffffff;dashed=0;verticalLabelPosition=bottom;verticalAlign=top;align=center;html=1;fontSize=8;fontStyle=1;aspect=fixed;shape=mxgraph.aws4.resourceIcon;resIcon=mxgraph.aws4.ec2;pointerEvents=0;strokeWidth=4;spacingLeft=30;fontFamily=Verdana;" vertex="1" parent="XAxsYa6l5oEgf_KA3OdA-66">
          <mxGeometry width="19.059615384615384" height="19.059615384615384" as="geometry" />
        </mxCell>
        <mxCell id="XAxsYa6l5oEgf_KA3OdA-69" value="" style="group;fontStyle=1;fontSize=8;align=right;fontFamily=Verdana;" vertex="1" connectable="0" parent="mF6jT3bMtm6UFvDJ5FtP-46">
          <mxGeometry x="729.9976923076923" y="509" width="46.39038461538461" height="53" as="geometry" />
        </mxCell>
        <mxCell id="XAxsYa6l5oEgf_KA3OdA-70" value="" style="sketch=0;points=[[0,0,0],[0.25,0,0],[0.5,0,0],[0.75,0,0],[1,0,0],[0,1,0],[0.25,1,0],[0.5,1,0],[0.75,1,0],[1,1,0],[0,0.25,0],[0,0.5,0],[0,0.75,0],[1,0.25,0],[1,0.5,0],[1,0.75,0]];outlineConnect=0;fontColor=#232F3E;fillColor=#ED7100;strokeColor=#ffffff;dashed=0;verticalLabelPosition=bottom;verticalAlign=top;align=center;html=1;fontSize=8;fontStyle=1;aspect=fixed;shape=mxgraph.aws4.resourceIcon;resIcon=mxgraph.aws4.ec2;pointerEvents=0;strokeWidth=4;spacingLeft=30;fontFamily=Verdana;" vertex="1" parent="XAxsYa6l5oEgf_KA3OdA-69">
          <mxGeometry x="27.33076923076923" width="19.059615384615384" height="19.059615384615384" as="geometry" />
        </mxCell>
        <mxCell id="XAxsYa6l5oEgf_KA3OdA-71" value="&lt;span style=&quot;font-size: 8px;&quot;&gt;EC2 Instances&lt;/span&gt;" style="sketch=0;points=[[0,0,0],[0.25,0,0],[0.5,0,0],[0.75,0,0],[1,0,0],[0,1,0],[0.25,1,0],[0.5,1,0],[0.75,1,0],[1,1,0],[0,0.25,0],[0,0.5,0],[0,0.75,0],[1,0.25,0],[1,0.5,0],[1,0.75,0]];outlineConnect=0;fontColor=#232F3E;fillColor=#ED7100;strokeColor=#ffffff;dashed=0;verticalLabelPosition=bottom;verticalAlign=top;align=center;html=1;fontSize=8;fontStyle=1;aspect=fixed;shape=mxgraph.aws4.resourceIcon;resIcon=mxgraph.aws4.ec2;pointerEvents=0;strokeWidth=4;spacingLeft=30;fontFamily=Verdana;" vertex="1" parent="XAxsYa6l5oEgf_KA3OdA-69">
          <mxGeometry width="19.059615384615384" height="19.059615384615384" as="geometry" />
        </mxCell>
        <mxCell id="XAxsYa6l5oEgf_KA3OdA-72" value="" style="endArrow=classic;startArrow=classic;html=1;rounded=0;fontFamily=Verdana;fontSize=12;fontColor=#248814;fontStyle=0;strokeColor=#0000FF;" edge="1" parent="XAxsYa6l5oEgf_KA3OdA-69">
          <mxGeometry width="50" height="50" relative="1" as="geometry">
            <mxPoint x="148.53230769230765" y="-160" as="sourcePoint" />
            <mxPoint x="68.53230769230765" y="10" as="targetPoint" />
            <Array as="points">
              <mxPoint x="148.53230769230765" y="10" />
              <mxPoint x="108.53230769230765" y="10" />
            </Array>
          </mxGeometry>
        </mxCell>
        <mxCell id="XAxsYa6l5oEgf_KA3OdA-73" value="" style="rounded=0;whiteSpace=wrap;html=1;dashed=1;pointerEvents=0;strokeColor=#7AA116;strokeWidth=2;align=left;verticalAlign=top;spacingLeft=30;fontFamily=Verdana;fontSize=8;fontColor=#248814;fontStyle=1;fillColor=#F2F6E8;gradientColor=none;" vertex="1" parent="mF6jT3bMtm6UFvDJ5FtP-46">
          <mxGeometry x="198.5" y="679" width="641" height="100" as="geometry" />
        </mxCell>
        <mxCell id="XAxsYa6l5oEgf_KA3OdA-74" value="&lt;div style=&quot;text-align: justify; font-size: 8px;&quot;&gt;RDS Database&amp;nbsp; &amp;nbsp; &amp;nbsp; &amp;nbsp;&amp;nbsp;&lt;/div&gt;" style="sketch=0;points=[[0,0,0],[0.25,0,0],[0.5,0,0],[0.75,0,0],[1,0,0],[0,1,0],[0.25,1,0],[0.5,1,0],[0.75,1,0],[1,1,0],[0,0.25,0],[0,0.5,0],[0,0.75,0],[1,0.25,0],[1,0.5,0],[1,0.75,0]];outlineConnect=0;fontColor=#232F3E;fillColor=#C925D1;strokeColor=#ffffff;dashed=0;verticalLabelPosition=bottom;verticalAlign=top;align=center;html=1;fontSize=8;fontStyle=1;aspect=fixed;shape=mxgraph.aws4.resourceIcon;resIcon=mxgraph.aws4.database;pointerEvents=0;strokeWidth=4;spacingLeft=30;fontFamily=Verdana;" vertex="1" parent="mF6jT3bMtm6UFvDJ5FtP-46">
          <mxGeometry x="730" y="694.5" width="59" height="59" as="geometry" />
        </mxCell>
        <mxCell id="XAxsYa6l5oEgf_KA3OdA-75" value="" style="sketch=0;outlineConnect=0;fontColor=#232F3E;gradientColor=none;fillColor=#8C4FFF;strokeColor=none;dashed=0;verticalLabelPosition=bottom;verticalAlign=top;align=center;html=1;fontSize=8;fontStyle=1;aspect=fixed;pointerEvents=1;shape=mxgraph.aws4.route_table;strokeWidth=4;spacingLeft=30;fontFamily=Verdana;" vertex="1" parent="mF6jT3bMtm6UFvDJ5FtP-46">
          <mxGeometry x="509.37307692307695" y="536" width="22.152307692307694" height="21.576923076923077" as="geometry" />
        </mxCell>
        <mxCell id="XAxsYa6l5oEgf_KA3OdA-76" value="&lt;span style=&quot;font-size: 8px; text-wrap-mode: nowrap;&quot;&gt;Application Load Balancer&lt;/span&gt;" style="text;html=1;align=center;verticalAlign=middle;whiteSpace=wrap;rounded=0;fontFamily=Verdana;fontSize=8;fontColor=#248814;fontStyle=1;" vertex="1" parent="mF6jT3bMtm6UFvDJ5FtP-46">
          <mxGeometry x="497.5" y="224" width="60" height="30" as="geometry" />
        </mxCell>
        <mxCell id="XAxsYa6l5oEgf_KA3OdA-77" value="&lt;span style=&quot;font-size: 8px; text-wrap-mode: nowrap;&quot;&gt;Application Load Balancer&lt;/span&gt;" style="text;html=1;align=center;verticalAlign=middle;whiteSpace=wrap;rounded=0;fontFamily=Verdana;fontSize=8;fontColor=#248814;fontStyle=1;" vertex="1" parent="mF6jT3bMtm6UFvDJ5FtP-46">
          <mxGeometry x="494.5" y="451" width="60" height="30" as="geometry" />
        </mxCell>
        <mxCell id="XAxsYa6l5oEgf_KA3OdA-78" value="NAT Gatway&amp;nbsp; &amp;nbsp; &amp;nbsp; &amp;nbsp; &amp;nbsp;" style="sketch=0;outlineConnect=0;fontColor=#232F3E;gradientColor=none;fillColor=#8C4FFF;strokeColor=none;dashed=0;verticalLabelPosition=bottom;verticalAlign=top;align=center;html=1;fontSize=8;fontStyle=1;aspect=fixed;pointerEvents=1;shape=mxgraph.aws4.nat_gateway;strokeWidth=4;spacingLeft=30;fontFamily=Verdana;" vertex="1" parent="mF6jT3bMtm6UFvDJ5FtP-46">
          <mxGeometry x="140.00307692307695" y="297" width="35.96153846153846" height="35.96153846153846" as="geometry" />
        </mxCell>
        <mxCell id="XAxsYa6l5oEgf_KA3OdA-79" value="NAT Gatway&amp;nbsp; &amp;nbsp; &amp;nbsp; &amp;nbsp; &amp;nbsp;" style="sketch=0;outlineConnect=0;fontColor=#232F3E;gradientColor=none;fillColor=#8C4FFF;strokeColor=none;dashed=0;verticalLabelPosition=bottom;verticalAlign=top;align=center;html=1;fontSize=8;fontStyle=1;aspect=fixed;pointerEvents=1;shape=mxgraph.aws4.nat_gateway;strokeWidth=4;spacingLeft=30;fontFamily=Verdana;" vertex="1" parent="mF6jT3bMtm6UFvDJ5FtP-46">
          <mxGeometry x="860.003076923077" y="292.03999999999996" width="35.96153846153846" height="35.96153846153846" as="geometry" />
        </mxCell>
        <mxCell id="XAxsYa6l5oEgf_KA3OdA-80" value="" style="endArrow=classic;startArrow=classic;html=1;rounded=0;fontFamily=Verdana;fontSize=12;fontColor=#248814;fontStyle=0;strokeColor=#0000FF;" edge="1" parent="mF6jT3bMtm6UFvDJ5FtP-46">
          <mxGeometry width="50" height="50" relative="1" as="geometry">
            <mxPoint x="120" y="320" as="sourcePoint" />
            <mxPoint x="520" y="60" as="targetPoint" />
            <Array as="points">
              <mxPoint x="60" y="320" />
              <mxPoint x="60" y="80" />
              <mxPoint x="520" y="80" />
            </Array>
          </mxGeometry>
        </mxCell>
        <mxCell id="XAxsYa6l5oEgf_KA3OdA-81" value="" style="endArrow=none;startArrow=classic;html=1;rounded=0;fontFamily=Verdana;fontSize=12;fontColor=#248814;fontStyle=0;strokeColor=#0000FF;endFill=0;" edge="1" parent="mF6jT3bMtm6UFvDJ5FtP-46">
          <mxGeometry width="50" height="50" relative="1" as="geometry">
            <mxPoint x="901" y="310" as="sourcePoint" />
            <mxPoint x="520" y="61" as="targetPoint" />
            <Array as="points">
              <mxPoint x="980" y="310" />
              <mxPoint x="980" y="80" />
              <mxPoint x="520" y="80" />
            </Array>
          </mxGeometry>
        </mxCell>
        <mxCell id="XAxsYa6l5oEgf_KA3OdA-82" value="" style="endArrow=classic;startArrow=classic;html=1;rounded=0;fontFamily=Verdana;fontSize=12;fontColor=#248814;fontStyle=0;strokeColor=#0000FF;" edge="1" parent="mF6jT3bMtm6UFvDJ5FtP-46">
          <mxGeometry width="50" height="50" relative="1" as="geometry">
            <mxPoint x="348" y="309" as="sourcePoint" />
            <mxPoint x="492" y="198" as="targetPoint" />
            <Array as="points">
              <mxPoint x="440" y="309" />
              <mxPoint x="439" y="238" />
              <mxPoint x="439" y="198" />
            </Array>
          </mxGeometry>
        </mxCell>
        <mxCell id="XAxsYa6l5oEgf_KA3OdA-83" value="" style="endArrow=classic;startArrow=classic;html=1;rounded=0;fontFamily=Verdana;fontSize=12;fontColor=#248814;fontStyle=0;strokeColor=#0000FF;" edge="1" parent="mF6jT3bMtm6UFvDJ5FtP-46">
          <mxGeometry width="50" height="50" relative="1" as="geometry">
            <mxPoint x="707.5000000000005" y="309" as="sourcePoint" />
            <mxPoint x="563.5000000000005" y="199" as="targetPoint" />
            <Array as="points">
              <mxPoint x="617" y="309" />
              <mxPoint x="616.5000000000005" y="239" />
              <mxPoint x="616.5000000000005" y="199" />
            </Array>
          </mxGeometry>
        </mxCell>
        <mxCell id="XAxsYa6l5oEgf_KA3OdA-84" value="" style="endArrow=classic;startArrow=classic;html=1;rounded=0;fontFamily=Verdana;fontSize=12;fontColor=#248814;fontStyle=0;strokeColor=#0000FF;" edge="1" parent="mF6jT3bMtm6UFvDJ5FtP-46">
          <mxGeometry width="50" height="50" relative="1" as="geometry">
            <mxPoint x="519.2861538461539" y="679" as="sourcePoint" />
            <mxPoint x="520.0053846153846" y="572" as="targetPoint" />
          </mxGeometry>
        </mxCell>
        <mxCell id="XAxsYa6l5oEgf_KA3OdA-85" value="" style="endArrow=classic;startArrow=classic;html=1;rounded=0;fontFamily=Verdana;fontSize=12;fontColor=#248814;fontStyle=0;strokeColor=#0000FF;" edge="1" parent="mF6jT3bMtm6UFvDJ5FtP-46">
          <mxGeometry width="50" height="50" relative="1" as="geometry">
            <mxPoint x="156" y="349" as="sourcePoint" />
            <mxPoint x="236" y="519" as="targetPoint" />
            <Array as="points">
              <mxPoint x="156" y="519" />
              <mxPoint x="196" y="519" />
            </Array>
          </mxGeometry>
        </mxCell>
        <mxCell id="XAxsYa6l5oEgf_KA3OdA-86" value="" style="sketch=0;outlineConnect=0;fontColor=#232F3E;gradientColor=none;fillColor=#ED7100;strokeColor=none;dashed=0;verticalLabelPosition=bottom;verticalAlign=top;align=center;html=1;fontSize=8;fontStyle=0;aspect=fixed;pointerEvents=1;shape=mxgraph.aws4.elastic_ip_address;strokeWidth=4;spacingLeft=30;fontFamily=Verdana;" vertex="1" parent="mF6jT3bMtm6UFvDJ5FtP-46">
          <mxGeometry x="942" y="31" width="48" height="20" as="geometry" />
        </mxCell>
        <mxCell id="XAxsYa6l5oEgf_KA3OdA-87" value="" style="sketch=0;outlineConnect=0;fontColor=#232F3E;gradientColor=none;fillColor=#8C4FFF;strokeColor=none;dashed=0;verticalLabelPosition=bottom;verticalAlign=top;align=center;html=1;fontSize=12;fontStyle=0;aspect=fixed;pointerEvents=1;shape=mxgraph.aws4.internet_gateway;fontFamily=Verdana;" vertex="1" parent="mF6jT3bMtm6UFvDJ5FtP-46">
          <mxGeometry x="501.5" y="-20" width="40" height="40" as="geometry" />
        </mxCell>
        <mxCell id="6SYd72VJ5WDawbDYeZpU-2" value="&lt;span style=&quot;text-wrap-mode: nowrap;&quot;&gt;Internet Gateway&lt;/span&gt;" style="text;html=1;align=center;verticalAlign=middle;whiteSpace=wrap;rounded=0;fontFamily=Verdana;fontSize=8;fontColor=#248814;fontStyle=1;" vertex="1" parent="mF6jT3bMtm6UFvDJ5FtP-46">
          <mxGeometry x="491.5" y="20" width="60" height="30" as="geometry" />
        </mxCell>
        <mxCell id="aFTqThzWlTgbjgwRTbi9-1" value="&lt;span style=&quot;text-wrap-mode: nowrap;&quot;&gt;Elastic IP Address&lt;/span&gt;" style="text;html=1;align=center;verticalAlign=middle;whiteSpace=wrap;rounded=0;fontFamily=Verdana;fontSize=8;fontColor=#248814;fontStyle=1;" vertex="1" parent="mF6jT3bMtm6UFvDJ5FtP-46">
          <mxGeometry x="936" y="46" width="60" height="30" as="geometry" />
        </mxCell>
        <mxCell id="XAxsYa6l5oEgf_KA3OdA-48" value="&lt;font style=&quot;font-size: 8px;&quot;&gt;&lt;span style=&quot;font-size: 8px;&quot;&gt;Bastion Host&lt;/span&gt;&lt;/font&gt;" style="sketch=0;points=[[0,0,0],[0.25,0,0],[0.5,0,0],[0.75,0,0],[1,0,0],[0,1,0],[0.25,1,0],[0.5,1,0],[0.75,1,0],[1,1,0],[0,0.25,0],[0,0.5,0],[0,0.75,0],[1,0.25,0],[1,0.5,0],[1,0.75,0]];outlineConnect=0;fontColor=#232F3E;fillColor=#ED7100;strokeColor=#ffffff;dashed=0;verticalLabelPosition=bottom;verticalAlign=top;align=center;html=1;fontSize=8;fontStyle=1;aspect=fixed;shape=mxgraph.aws4.resourceIcon;resIcon=mxgraph.aws4.ec2;fontFamily=Verdana;" vertex="1" parent="mF6jT3bMtm6UFvDJ5FtP-46">
          <mxGeometry x="914" y="328" width="28" height="28" as="geometry" />
        </mxCell>
        <mxCell id="aFTqThzWlTgbjgwRTbi9-3" value="" style="endArrow=classic;startArrow=classic;html=1;rounded=0;fontFamily=Verdana;fontSize=12;fontColor=#248814;fontStyle=0;strokeColor=#FF0000;dashed=1;" edge="1" parent="mF6jT3bMtm6UFvDJ5FtP-46">
          <mxGeometry width="50" height="50" relative="1" as="geometry">
            <mxPoint x="930.0000000000002" y="371" as="sourcePoint" />
            <mxPoint x="798" y="541" as="targetPoint" />
            <Array as="points">
              <mxPoint x="930.0000000000002" y="541" />
              <mxPoint x="890.0000000000002" y="541" />
            </Array>
          </mxGeometry>
        </mxCell>
      </root>
    </mxGraphModel>
  </diagram>
</mxfile>
